<?xml version="1.0" encoding="UTF-8"?>
<svg xmlns="http://www.w3.org/2000/svg" width="1241" height="255">
   <defs>
      <style type="text/css">
    @namespace "http://www.w3.org/2000/svg";
    .line                 {fill: none; stroke: #333300; stroke-width: 1;}
    .bold-line            {stroke: #141400; shape-rendering: crispEdges; stroke-width: 2;}
    .thin-line            {stroke: #140C00; shape-rendering: crispEdges}
    .filled               {fill: #333300; stroke: none;}
    text.terminal         {font-family: Verdana, Sans-serif;
                            font-size: 12px;
                            fill: #141400;
                            font-weight: bold;
                          }
    text.nonterminal      {font-family: Verdana, Sans-serif;
                            font-size: 12px;
                            fill: #141000;
                            font-weight: normal;
                          }
    text.regexp           {font-family: Verdana, Sans-serif;
                            font-size: 12px;
                            fill: #140C00;
                            font-weight: normal;
                          }
    rect, circle, polygon {fill: #333300; stroke: #333300;}
    rect.terminal         {fill: #FFFF4D; stroke: #333300; stroke-width: 1;}
    rect.nonterminal      {fill: #FFD84D; stroke: #333300; stroke-width: 1;}
    rect.text             {fill: none; stroke: none;}
    polygon.regexp        {fill: #FFB24D; stroke: #333300; stroke-width: 1;}
  </style>
   </defs>
   <polygon points="9 33 1 29 1 37"/>
   <polygon points="17 33 9 29 9 37"/>
   <rect x="71" y="19" width="38" height="32" rx="10"/>
   <rect x="69"
          y="17"
          width="38"
          height="32"
          class="terminal"
          rx="10"/>
   <text class="terminal" x="79" y="37">let</text>
   <rect x="129" y="19" width="28" height="32" rx="10"/>
   <rect x="127"
          y="17"
          width="28"
          height="32"
          class="terminal"
          rx="10"/>
   <text class="terminal" x="137" y="37">{</text>
   <a xmlns:xlink="http://www.w3.org/1999/xlink"
       xlink:href="#expression"
       xlink:title="expression">
      <rect x="177" y="19" width="90" height="32"/>
      <rect x="175" y="17" width="90" height="32" class="nonterminal"/>
      <text class="nonterminal" x="185" y="37">expression</text>
   </a>
   <rect x="287" y="19" width="28" height="32" rx="10"/>
   <rect x="285"
          y="17"
          width="28"
          height="32"
          class="terminal"
          rx="10"/>
   <text class="terminal" x="295" y="37">}</text>
   <rect x="395" y="19" width="28" height="32" rx="10"/>
   <rect x="393"
          y="17"
          width="28"
          height="32"
          class="terminal"
          rx="10"/>
   <text class="terminal" x="403" y="37">{</text>
   <a xmlns:xlink="http://www.w3.org/1999/xlink"
       xlink:href="#text"
       xlink:title="text">
      <rect x="503" y="19" width="44" height="32"/>
      <rect x="501" y="17" width="44" height="32" class="nonterminal"/>
      <text class="nonterminal" x="511" y="37">text</text>
   </a>
   <rect x="503" y="63" width="28" height="32" rx="10"/>
   <rect x="501"
          y="61"
          width="28"
          height="32"
          class="terminal"
          rx="10"/>
   <text class="terminal" x="511" y="81">{</text>
   <a xmlns:xlink="http://www.w3.org/1999/xlink"
       xlink:href="#expression"
       xlink:title="expression">
      <rect x="551" y="63" width="90" height="32"/>
      <rect x="549" y="61" width="90" height="32" class="nonterminal"/>
      <text class="nonterminal" x="559" y="81">expression</text>
   </a>
   <rect x="661" y="63" width="28" height="32" rx="10"/>
   <rect x="659"
          y="61"
          width="28"
          height="32"
          class="terminal"
          rx="10"/>
   <text class="terminal" x="669" y="81">}</text>
   <rect x="769" y="19" width="28" height="32" rx="10"/>
   <rect x="767"
          y="17"
          width="28"
          height="32"
          class="terminal"
          rx="10"/>
   <text class="terminal" x="777" y="37">}</text>
   <rect x="395" y="161" width="62" height="32" rx="10"/>
   <rect x="393"
          y="159"
          width="62"
          height="32"
          class="terminal"
          rx="10"/>
   <text class="terminal" x="403" y="179">match</text>
   <rect x="497" y="161" width="28" height="32" rx="10"/>
   <rect x="495"
          y="159"
          width="28"
          height="32"
          class="terminal"
          rx="10"/>
   <text class="terminal" x="505" y="179">{</text>
   <a xmlns:xlink="http://www.w3.org/1999/xlink"
       xlink:href="#expression"
       xlink:title="expression">
      <rect x="545" y="161" width="90" height="32"/>
      <rect x="543" y="159" width="90" height="32" class="nonterminal"/>
      <text class="nonterminal" x="553" y="179">expression</text>
   </a>
   <rect x="655" y="161" width="28" height="32" rx="10"/>
   <rect x="653"
          y="159"
          width="28"
          height="32"
          class="terminal"
          rx="10"/>
   <text class="terminal" x="663" y="179">}</text>
   <rect x="743" y="161" width="56" height="32" rx="10"/>
   <rect x="741"
          y="159"
          width="56"
          height="32"
          class="terminal"
          rx="10"/>
   <text class="terminal" x="751" y="179">when</text>
   <rect x="819" y="161" width="28" height="32" rx="10"/>
   <rect x="817"
          y="159"
          width="28"
          height="32"
          class="terminal"
          rx="10"/>
   <text class="terminal" x="827" y="179">{</text>
   <a xmlns:xlink="http://www.w3.org/1999/xlink"
       xlink:href="#text"
       xlink:title="text">
      <rect x="927" y="161" width="44" height="32"/>
      <rect x="925" y="159" width="44" height="32" class="nonterminal"/>
      <text class="nonterminal" x="935" y="179">text</text>
   </a>
   <rect x="927" y="205" width="28" height="32" rx="10"/>
   <rect x="925"
          y="203"
          width="28"
          height="32"
          class="terminal"
          rx="10"/>
   <text class="terminal" x="935" y="223">{</text>
   <a xmlns:xlink="http://www.w3.org/1999/xlink"
       xlink:href="#expression"
       xlink:title="expression">
      <rect x="975" y="205" width="90" height="32"/>
      <rect x="973" y="203" width="90" height="32" class="nonterminal"/>
      <text class="nonterminal" x="983" y="223">expression</text>
   </a>
   <rect x="1085" y="205" width="28" height="32" rx="10"/>
   <rect x="1083"
          y="203"
          width="28"
          height="32"
          class="terminal"
          rx="10"/>
   <text class="terminal" x="1093" y="223">}</text>
   <path class="line"
          d="m17 33 h2 m40 0 h10 m38 0 h10 m0 0 h10 m28 0 h10 m0 0 h10 m90 0 h10 m0 0 h10 m28 0 h10 m-284 0 l20 0 m-1 0 q-9 0 -9 -10 l0 -12 q0 -10 10 -10 m264 32 l20 0 m-20 0 q10 0 10 -10 l0 -12 q0 -10 -10 -10 m-264 0 h10 m0 0 h254 m-304 32 h20 m304 0 h20 m-344 0 q10 0 10 10 m324 0 q0 -10 10 -10 m-334 10 v14 m324 0 v-14 m-324 14 q0 10 10 10 m304 0 q10 0 10 -10 m-314 10 h10 m0 0 h294 m40 -34 h10 m28 0 h10 m60 0 h10 m44 0 h10 m0 0 h142 m-226 0 h20 m206 0 h20 m-246 0 q10 0 10 10 m226 0 q0 -10 10 -10 m-236 10 v24 m226 0 v-24 m-226 24 q0 10 10 10 m206 0 q10 0 10 -10 m-216 10 h10 m28 0 h10 m0 0 h10 m90 0 h10 m0 0 h10 m28 0 h10 m-246 -44 l20 0 m-1 0 q-9 0 -9 -10 l0 -12 q0 -10 10 -10 m246 32 l20 0 m-20 0 q10 0 10 -10 l0 -12 q0 -10 -10 -10 m-246 0 h10 m0 0 h236 m-286 32 h20 m286 0 h20 m-326 0 q10 0 10 10 m306 0 q0 -10 10 -10 m-316 10 v58 m306 0 v-58 m-306 58 q0 10 10 10 m286 0 q10 0 10 -10 m-296 10 h10 m0 0 h276 m20 -78 h10 m28 0 h10 m0 0 h396 m-838 0 h20 m818 0 h20 m-858 0 q10 0 10 10 m838 0 q0 -10 10 -10 m-848 10 v122 m838 0 v-122 m-838 122 q0 10 10 10 m818 0 q10 0 10 -10 m-828 10 h10 m62 0 h10 m20 0 h10 m28 0 h10 m0 0 h10 m90 0 h10 m0 0 h10 m28 0 h10 m-226 0 l20 0 m-1 0 q-9 0 -9 -10 l0 -12 q0 -10 10 -10 m206 32 l20 0 m-20 0 q10 0 10 -10 l0 -12 q0 -10 -10 -10 m-206 0 h10 m0 0 h196 m40 32 h10 m56 0 h10 m0 0 h10 m28 0 h10 m60 0 h10 m44 0 h10 m0 0 h142 m-226 0 h20 m206 0 h20 m-246 0 q10 0 10 10 m226 0 q0 -10 10 -10 m-236 10 v24 m226 0 v-24 m-226 24 q0 10 10 10 m206 0 q10 0 10 -10 m-216 10 h10 m28 0 h10 m0 0 h10 m90 0 h10 m0 0 h10 m28 0 h10 m-246 -44 l20 0 m-1 0 q-9 0 -9 -10 l0 -12 q0 -10 10 -10 m246 32 l20 0 m-20 0 q10 0 10 -10 l0 -12 q0 -10 -10 -10 m-246 0 h10 m0 0 h236 m-286 32 h20 m286 0 h20 m-326 0 q10 0 10 10 m306 0 q0 -10 10 -10 m-316 10 v58 m306 0 v-58 m-306 58 q0 10 10 10 m286 0 q10 0 10 -10 m-296 10 h10 m0 0 h276 m-450 -78 l20 0 m-1 0 q-9 0 -9 -10 l0 -28 q0 -10 10 -10 m450 48 l20 0 m-20 0 q10 0 10 -10 l0 -28 q0 -10 -10 -10 m-450 0 h10 m0 0 h440 m43 -94 h-3"/>
   <polygon points="1231 33 1239 29 1239 37"/>
   <polygon points="1231 33 1223 29 1223 37"/>
</svg>
